# xmcd CD database file
#
# Track frame offsets:
#	150
#	41867
#	102797
#	143519
#	184824
#
# Disc length: 2670 seconds
#
# Revision: 1
# Processed by: cddbd v1.5.2PL0 Copyright (c) Steve Scherf et al.
# Submitted via: CDex 1.70beta2
#
DISCID=3d0a6c05
DTITLE=Atomic - Theater Tilters [CD1]
DYEAR=2010
DGENRE=Jazz
TTITLE0=Green Mill Tilter
TTITLE1=Andersonville
TTITLE2=Fissures
TTITLE3=Murmansk
TTITLE4=Bop About
EXTD=YEAR: 2010
EXTT0=
EXTT1=
EXTT2=
EXTT3=
EXTT4=
PLAYORDER=
